<mxfile host="app.diagrams.net" modified="2024-02-17T17:30:38.307Z" agent="Mozilla/5.0 (Macintosh; Intel Mac OS X 10_15_7) AppleWebKit/537.36 (KHTML, like Gecko) Chrome/121.0.0.0 Safari/537.36" etag="JecBTUc5WXfuDGSPV2F7" version="23.1.5" type="github">
  <diagram name="Page-1" id="0sPKZXyum6bMU_nvgX6Q">
    <mxGraphModel dx="984" dy="747" grid="0" gridSize="10" guides="1" tooltips="1" connect="1" arrows="1" fold="1" page="0" pageScale="1" pageWidth="850" pageHeight="1100" math="0" shadow="0">
      <root>
        <mxCell id="0" />
        <mxCell id="1" parent="0" />
        <mxCell id="TRLG6AHGVC8WDYFYFgU4-12" value="" style="group" vertex="1" connectable="0" parent="1">
          <mxGeometry x="472.5" y="195" width="78" height="122" as="geometry" />
        </mxCell>
        <mxCell id="TRLG6AHGVC8WDYFYFgU4-3" value="" style="sketch=0;points=[[0,0,0],[0.25,0,0],[0.5,0,0],[0.75,0,0],[1,0,0],[0,1,0],[0.25,1,0],[0.5,1,0],[0.75,1,0],[1,1,0],[0,0.25,0],[0,0.5,0],[0,0.75,0],[1,0.25,0],[1,0.5,0],[1,0.75,0]];outlineConnect=0;fontColor=#232F3E;fillColor=#7AA116;strokeColor=#ffffff;dashed=0;verticalLabelPosition=bottom;verticalAlign=top;align=center;html=1;fontSize=12;fontStyle=0;aspect=fixed;shape=mxgraph.aws4.resourceIcon;resIcon=mxgraph.aws4.s3;" vertex="1" parent="TRLG6AHGVC8WDYFYFgU4-12">
          <mxGeometry y="44" width="78" height="78" as="geometry" />
        </mxCell>
        <mxCell id="TRLG6AHGVC8WDYFYFgU4-10" value="&lt;b&gt;S3 Data Lake&lt;br&gt;&lt;/b&gt;" style="text;strokeColor=none;align=center;fillColor=none;html=1;verticalAlign=middle;whiteSpace=wrap;rounded=0;" vertex="1" parent="TRLG6AHGVC8WDYFYFgU4-12">
          <mxGeometry x="9" width="60" height="30" as="geometry" />
        </mxCell>
        <mxCell id="TRLG6AHGVC8WDYFYFgU4-13" value="" style="group" vertex="1" connectable="0" parent="1">
          <mxGeometry x="190" y="195" width="67.5" height="120.5" as="geometry" />
        </mxCell>
        <mxCell id="TRLG6AHGVC8WDYFYFgU4-1" value="" style="outlineConnect=0;dashed=0;verticalLabelPosition=bottom;verticalAlign=top;align=center;html=1;shape=mxgraph.aws3.redshift;fillColor=#2E73B8;gradientColor=none;" vertex="1" parent="TRLG6AHGVC8WDYFYFgU4-13">
          <mxGeometry y="45.5" width="67.5" height="75" as="geometry" />
        </mxCell>
        <mxCell id="TRLG6AHGVC8WDYFYFgU4-8" value="&lt;b&gt;Amazon Redshift&lt;/b&gt;" style="text;strokeColor=none;align=center;fillColor=none;html=1;verticalAlign=middle;whiteSpace=wrap;rounded=0;" vertex="1" parent="TRLG6AHGVC8WDYFYFgU4-13">
          <mxGeometry x="3.75" width="60" height="30" as="geometry" />
        </mxCell>
        <mxCell id="TRLG6AHGVC8WDYFYFgU4-24" value="" style="group" vertex="1" connectable="0" parent="1">
          <mxGeometry x="461" y="394" width="101" height="127" as="geometry" />
        </mxCell>
        <mxCell id="TRLG6AHGVC8WDYFYFgU4-4" value="" style="sketch=0;points=[[0,0,0],[0.25,0,0],[0.5,0,0],[0.75,0,0],[1,0,0],[0,1,0],[0.25,1,0],[0.5,1,0],[0.75,1,0],[1,1,0],[0,0.25,0],[0,0.5,0],[0,0.75,0],[1,0.25,0],[1,0.5,0],[1,0.75,0]];outlineConnect=0;fontColor=#232F3E;fillColor=#7AA116;strokeColor=#ffffff;dashed=0;verticalLabelPosition=bottom;verticalAlign=top;align=center;html=1;fontSize=12;fontStyle=0;aspect=fixed;shape=mxgraph.aws4.resourceIcon;resIcon=mxgraph.aws4.glacier;" vertex="1" parent="TRLG6AHGVC8WDYFYFgU4-24">
          <mxGeometry x="11.5" width="78" height="78" as="geometry" />
        </mxCell>
        <mxCell id="TRLG6AHGVC8WDYFYFgU4-23" value="&lt;div style=&quot;text-align: center;&quot;&gt;&lt;span style=&quot;background-color: initial;&quot;&gt;&lt;b&gt;S3 Glacier Deep Archive&lt;/b&gt;&lt;/span&gt;&lt;/div&gt;" style="text;whiteSpace=wrap;html=1;" vertex="1" parent="TRLG6AHGVC8WDYFYFgU4-24">
          <mxGeometry y="91" width="101" height="36" as="geometry" />
        </mxCell>
        <mxCell id="TRLG6AHGVC8WDYFYFgU4-26" style="edgeStyle=orthogonalEdgeStyle;rounded=0;orthogonalLoop=1;jettySize=auto;html=1;" edge="1" parent="1" source="TRLG6AHGVC8WDYFYFgU4-3" target="TRLG6AHGVC8WDYFYFgU4-4">
          <mxGeometry relative="1" as="geometry" />
        </mxCell>
        <mxCell id="TRLG6AHGVC8WDYFYFgU4-46" value="Lifecycle Policy" style="edgeLabel;html=1;align=center;verticalAlign=middle;resizable=0;points=[];" vertex="1" connectable="0" parent="TRLG6AHGVC8WDYFYFgU4-26">
          <mxGeometry x="0.1613" y="3" relative="1" as="geometry">
            <mxPoint y="-9" as="offset" />
          </mxGeometry>
        </mxCell>
        <mxCell id="TRLG6AHGVC8WDYFYFgU4-49" value="" style="group" vertex="1" connectable="0" parent="1">
          <mxGeometry x="314" y="182" width="93" height="133.5" as="geometry" />
        </mxCell>
        <mxCell id="TRLG6AHGVC8WDYFYFgU4-2" value="" style="outlineConnect=0;dashed=0;verticalLabelPosition=bottom;verticalAlign=top;align=center;html=1;shape=mxgraph.aws3.redshift;fillColor=#2E73B8;gradientColor=none;" vertex="1" parent="TRLG6AHGVC8WDYFYFgU4-49">
          <mxGeometry x="15" y="58.5" width="67.5" height="75" as="geometry" />
        </mxCell>
        <mxCell id="TRLG6AHGVC8WDYFYFgU4-48" value="&lt;b style=&quot;border-color: var(--border-color); color: rgb(0, 0, 0); font-family: Helvetica; font-size: 12px; font-style: normal; font-variant-ligatures: normal; font-variant-caps: normal; letter-spacing: normal; orphans: 2; text-indent: 0px; text-transform: none; widows: 2; word-spacing: 0px; -webkit-text-stroke-width: 0px; background-color: rgb(255, 255, 255); text-decoration-thickness: initial; text-decoration-style: initial; text-decoration-color: initial;&quot;&gt;Amazon Redshift&lt;br style=&quot;border-color: var(--border-color);&quot;&gt;Spectrum&lt;/b&gt;" style="text;whiteSpace=wrap;html=1;align=center;" vertex="1" parent="TRLG6AHGVC8WDYFYFgU4-49">
          <mxGeometry width="93" height="51" as="geometry" />
        </mxCell>
        <mxCell id="TRLG6AHGVC8WDYFYFgU4-50" style="edgeStyle=orthogonalEdgeStyle;rounded=0;orthogonalLoop=1;jettySize=auto;html=1;entryX=0;entryY=0.5;entryDx=0;entryDy=0;entryPerimeter=0;" edge="1" parent="1" source="TRLG6AHGVC8WDYFYFgU4-1" target="TRLG6AHGVC8WDYFYFgU4-2">
          <mxGeometry relative="1" as="geometry" />
        </mxCell>
        <mxCell id="TRLG6AHGVC8WDYFYFgU4-56" value="" style="group" vertex="1" connectable="0" parent="1">
          <mxGeometry x="54" y="243" width="53" height="75" as="geometry" />
        </mxCell>
        <mxCell id="TRLG6AHGVC8WDYFYFgU4-53" value="" style="verticalLabelPosition=bottom;html=1;verticalAlign=top;align=center;strokeColor=none;fillColor=#00BEF2;shape=mxgraph.azure.laptop;pointerEvents=1;" vertex="1" parent="TRLG6AHGVC8WDYFYFgU4-56">
          <mxGeometry x="1.5" width="50" height="30" as="geometry" />
        </mxCell>
        <mxCell id="TRLG6AHGVC8WDYFYFgU4-54" value="&lt;b style=&quot;border-color: var(--border-color); color: rgb(0, 0, 0); font-family: Helvetica; font-size: 12px; font-style: normal; font-variant-ligatures: normal; font-variant-caps: normal; letter-spacing: normal; orphans: 2; text-align: center; text-indent: 0px; text-transform: none; widows: 2; word-spacing: 0px; -webkit-text-stroke-width: 0px; background-color: rgb(255, 255, 255); text-decoration-thickness: initial; text-decoration-style: initial; text-decoration-color: initial;&quot;&gt;Analysis&lt;/b&gt;" style="text;whiteSpace=wrap;html=1;" vertex="1" parent="TRLG6AHGVC8WDYFYFgU4-56">
          <mxGeometry y="41" width="53" height="34" as="geometry" />
        </mxCell>
        <mxCell id="TRLG6AHGVC8WDYFYFgU4-59" style="edgeStyle=orthogonalEdgeStyle;rounded=0;orthogonalLoop=1;jettySize=auto;html=1;exitX=1.057;exitY=-0.162;exitDx=0;exitDy=0;exitPerimeter=0;" edge="1" parent="1" source="TRLG6AHGVC8WDYFYFgU4-54" target="TRLG6AHGVC8WDYFYFgU4-1">
          <mxGeometry relative="1" as="geometry">
            <mxPoint x="107" y="265" as="sourcePoint" />
          </mxGeometry>
        </mxCell>
        <mxCell id="TRLG6AHGVC8WDYFYFgU4-63" style="edgeStyle=orthogonalEdgeStyle;rounded=0;orthogonalLoop=1;jettySize=auto;html=1;" edge="1" parent="1" source="TRLG6AHGVC8WDYFYFgU4-2" target="TRLG6AHGVC8WDYFYFgU4-3">
          <mxGeometry relative="1" as="geometry" />
        </mxCell>
      </root>
    </mxGraphModel>
  </diagram>
</mxfile>
